<svg width="98" height="36" viewBox="0 0 98 36" fill="none" xmlns="http://www.w3.org/2000/svg">
<g filter="url(#filter0_i_50022_15055)">
<path fill-rule="evenodd" clip-rule="evenodd" d="M35.4553 9.36418C35.667 9.04435 36.0133 8.86956 36.3675 8.86963C36.5545 8.86967 36.7438 8.91849 36.9166 9.0205C37.4173 9.31616 37.6089 9.95774 37.355 10.489L34.4948 16.475C34.4948 16.475 37.4423 16.0523 37.7617 16.0284C37.8686 16.0204 37.9989 16.0118 38.1398 16.012C38.4198 16.0122 38.7422 16.047 39.0086 16.1895C39.9336 16.6843 40.255 17.877 39.7085 18.7865L34.4946 27.4637C34.2878 27.8078 33.9272 28 33.5562 27.9999C33.384 27.9999 33.2096 27.9585 33.0472 27.8716C32.5358 27.598 32.318 26.9668 32.5483 26.4256L35.349 19.8432L31.7839 20.6256C31.7381 20.6356 31.6924 20.6438 31.6467 20.6503C31.5528 20.6656 31.4575 20.6734 31.3618 20.6734C31.0571 20.6733 30.7478 20.5939 30.4635 20.4261C29.8547 20.0666 29.5324 19.4027 29.5647 18.7371C29.5775 18.2633 30.0299 17.5597 30.0743 17.493C30.1186 17.4263 35.4553 9.36418 35.4553 9.36418Z" fill="#D19700"/>
</g>
<path d="M39.5134 16.1897C40.4383 16.6845 40.7598 17.8772 40.2132 18.7867H39.7077C40.2542 17.8772 39.9328 16.6845 39.0078 16.1897H39.5134Z" fill="#D19700"/>
<path d="M38.6462 16.0095C38.9262 16.0098 39.2485 16.0445 39.515 16.1868H39.0094C38.743 16.0445 38.4206 16.0098 38.1406 16.0095H38.6462Z" fill="#D19700"/>
<path d="M38.6454 16.0095C38.6432 16.0095 38.6409 16.0095 38.6387 16.0095C38.5003 16.0097 38.3725 16.018 38.2673 16.0257H37.7617C37.8687 16.0179 37.9989 16.0094 38.1398 16.0095H38.6387H38.6454Z" fill="#D19700"/>
<path d="M37.4235 9.02148C37.9243 9.31714 38.1158 9.95872 37.862 10.49H37.3564C37.6103 9.95872 37.4187 9.31714 36.918 9.02148H37.4235Z" fill="#D19700"/>
<path d="M40.2155 18.7847L35.0016 27.4618H34.4961L39.7099 18.7847H40.2155Z" fill="#D19700"/>
<path d="M36.8727 8.86963C37.0598 8.86966 37.2491 8.91842 37.4219 9.02027H36.9163C36.7435 8.91842 36.5543 8.86966 36.3672 8.86963H36.8727Z" fill="#D19700"/>
<path d="M35.0016 16.4725C35.0016 16.4725 37.9491 16.0505 38.2685 16.0266H37.763C37.4435 16.0505 34.4961 16.4725 34.4961 16.4725H35.0016Z" fill="#D19700"/>
<path d="M37.8618 10.4907L35.0016 16.4767H34.4961L37.3563 10.4907H37.8618Z" fill="#D19700"/>
<path d="M34.9987 27.4639C34.7919 27.8075 34.4313 27.9994 34.0602 27.9993H33.5552C33.9261 27.9992 34.2865 27.8073 34.4932 27.4639H34.9987Z" fill="#D19700"/>
<path d="M35.8519 19.8401L32.2868 20.6225H31.7812L35.3464 19.8401H35.8519Z" fill="#D19700"/>
<path fill-rule="evenodd" clip-rule="evenodd" d="M33.0563 26.4247L35.8571 19.8423H35.3515L32.5516 26.4227H32.5486C32.3183 26.9639 32.5361 27.595 33.0474 27.8687H33.043C33.2053 27.9554 33.3798 27.9967 33.5519 27.9968H34.0575C33.8854 27.9967 33.711 27.9554 33.5487 27.8687H33.5531C33.0423 27.5955 32.8244 26.9655 33.0533 26.4247H33.0563Z" fill="url(#paint0_linear_50022_15055)"/>
<path d="M32.2873 20.6223C32.2415 20.6322 32.1957 20.6403 32.1501 20.6466H31.6445C31.6902 20.6403 31.7359 20.6322 31.7817 20.6223H32.2873Z" fill="#D19700"/>
<path d="M32.1499 20.6504C32.056 20.6655 31.9607 20.6732 31.8649 20.6731H31.3604C31.4558 20.6731 31.5507 20.6654 31.6443 20.6504H32.1499Z" fill="#D19700"/>
<path fill-rule="evenodd" clip-rule="evenodd" d="M35.9587 9.36655C36.1703 9.04734 36.5164 8.87284 36.8704 8.87277H36.3653C36.0121 8.8727 35.6668 9.04626 35.4549 9.36392H35.4474C35.4474 9.36392 30.1108 17.4261 30.0664 17.4927H30.572C30.6158 17.4268 35.8419 9.53181 35.9513 9.36655H35.9587ZM30.0664 18.7455C30.0341 19.4111 30.3564 20.075 30.9652 20.4345H30.9635C31.2475 20.6017 31.5564 20.6808 31.8608 20.6809H31.3553C31.0506 20.6808 30.7413 20.6016 30.457 20.434H30.4587C29.8505 20.0744 29.5285 19.4108 29.5608 18.7455H30.0664ZM30.0641 18.7372C30.0769 18.2634 30.5293 17.5598 30.5737 17.4931H30.0681C30.0238 17.5598 29.5714 18.2634 29.5586 18.7372H30.0641Z" fill="url(#paint1_linear_50022_15055)"/>
<path fill-rule="evenodd" clip-rule="evenodd" d="M35.9592 9.36418C36.2828 8.8754 36.9206 8.72538 37.4205 9.0205C37.9212 9.31616 38.1128 9.95774 37.8589 10.489L34.9987 16.475C34.9987 16.475 37.9462 16.0523 38.2656 16.0284C38.585 16.0045 39.112 15.9753 39.5125 16.1895C40.4375 16.6843 40.7589 17.877 40.2124 18.7865L34.9985 27.4637C34.6958 27.9675 34.0635 28.1457 33.5511 27.8716C33.0397 27.598 32.8219 26.9668 33.0522 26.4256L35.8529 19.8432L32.2878 20.6256C32.242 20.6356 32.1963 20.6438 32.1506 20.6503C31.7578 20.7144 31.341 20.6467 30.9674 20.4261C30.3586 20.0666 30.0363 19.4027 30.0686 18.7371C30.0814 18.2633 30.5338 17.5597 30.5782 17.493C30.6225 17.4263 35.9592 9.36418 35.9592 9.36418Z" fill="#F2BE5A"/>
<path d="M16.4713 25.6026C15.5734 26.3748 14.5678 26.9674 13.4545 27.3804C12.3411 27.7934 11.1874 27.9999 9.99322 27.9999C9.0774 27.9999 8.193 27.8787 7.34003 27.6363C6.49604 27.4028 5.70143 27.0706 4.9562 26.6396C4.21996 26.1997 3.54656 25.6744 2.93601 25.0639C2.32547 24.4533 1.80022 23.7799 1.36026 23.0437C0.929288 22.2985 0.59259 21.5039 0.350167 20.6599C0.116722 19.8069 0 18.9225 0 18.0067C0 17.0909 0.116722 16.2065 0.350167 15.3535C0.59259 14.5005 0.929288 13.7059 1.36026 12.9697C1.80022 12.2244 2.32547 11.5466 2.93601 10.936C3.54656 10.3255 4.21996 9.80471 4.9562 9.37373C5.70143 8.93378 6.49604 8.59708 7.34003 8.36363C8.193 8.12121 9.0774 8 9.99322 8C11.1874 8 12.3411 8.20651 13.4545 8.61953C14.0264 8.82706 14.5698 9.08435 15.0849 9.39139C15.9359 9.89876 16.095 11.0162 15.5802 11.8629C15.0006 12.8161 13.6489 12.9327 12.6378 12.4611C12.5653 12.4272 12.4919 12.3948 12.4174 12.3636C11.6453 12.0314 10.8372 11.8653 9.99322 11.8653C9.14025 11.8653 8.34115 12.0269 7.59592 12.3501C6.8507 12.6734 6.19974 13.1133 5.64307 13.67C5.08639 14.2177 4.64644 14.8687 4.32321 15.6229C3.99998 16.3681 3.83836 17.1627 3.83836 18.0067C3.83836 18.8507 3.99998 19.6453 4.32321 20.3905C4.64644 21.1268 5.08639 21.7732 5.64307 22.3299C6.19974 22.8866 6.8507 23.3265 7.59592 23.6498C8.34115 23.973 9.14025 24.1346 9.99322 24.1346C10.8372 24.1346 11.6453 23.973 12.4174 23.6498C13.1896 23.3175 13.8585 22.8462 14.4242 22.2356L16.4713 25.6026Z" fill="#7B4CFF"/>
<path d="M28.7316 20.2424C28.7316 21.3198 28.5386 22.3254 28.1525 23.2592C27.7664 24.184 27.2412 24.9876 26.5767 25.67C25.9123 26.3433 25.1312 26.8776 24.2333 27.2726C23.3444 27.6587 22.3882 27.8518 21.3647 27.8518C20.3501 27.8518 19.3938 27.6587 18.496 27.2726C17.6071 26.8776 16.826 26.3433 16.1526 25.67C15.4881 24.9876 14.9629 24.184 14.5768 23.2592C14.1907 22.3254 13.9977 21.3198 13.9977 20.2424C13.9977 19.147 14.1907 18.1324 14.5768 17.1986C14.9629 16.2648 15.4881 15.4612 16.1526 14.7878C16.826 14.1055 17.6071 13.5712 18.496 13.1852C19.3938 12.7991 20.3501 12.606 21.3647 12.606C22.3882 12.606 23.3444 12.7901 24.2333 13.1582C25.1312 13.5174 25.9123 14.0336 26.5767 14.707C27.2412 15.3715 27.7664 16.175 28.1525 17.1178C28.5386 18.0516 28.7316 19.0931 28.7316 20.2424ZM25.0279 20.2424C25.0279 19.6498 24.9292 19.1155 24.7316 18.6397C24.5431 18.1548 24.2827 17.7418 23.9505 17.4006C23.6183 17.0505 23.2277 16.7856 22.7788 16.606C22.3388 16.4175 21.8675 16.3232 21.3647 16.3232C20.8618 16.3232 20.386 16.4175 19.9371 16.606C19.4971 16.7856 19.111 17.0505 18.7788 17.4006C18.4556 17.7418 18.1997 18.1548 18.0111 18.6397C17.8226 19.1155 17.7283 19.6498 17.7283 20.2424C17.7283 20.799 17.8226 21.3153 18.0111 21.7912C18.1997 22.267 18.4556 22.6801 18.7788 23.0302C19.111 23.3804 19.4971 23.6587 19.9371 23.8652C20.386 24.0628 20.8618 24.1615 21.3647 24.1615C21.8675 24.1615 22.3388 24.0673 22.7788 23.8787C23.2277 23.6902 23.6183 23.4253 23.9505 23.0841C24.2827 22.7429 24.5431 22.3299 24.7316 21.8451C24.9292 21.3602 25.0279 20.826 25.0279 20.2424Z" fill="#7B4CFF"/>
<path d="M45.1013 26.2051C45.1013 27.1964 44.2977 27.9999 43.3065 27.9999C42.3153 27.9999 41.5117 27.1964 41.5117 26.2051V14.5208C41.5117 14.1918 41.7784 13.9252 42.1074 13.9252C42.2802 13.9252 42.4445 14.0002 42.5577 14.1309L43.5629 15.2919C44.1414 14.7662 44.7945 14.3632 45.522 14.0829C46.2584 13.7937 47.0254 13.6492 47.823 13.6492C48.6821 13.6492 49.4929 13.8156 50.2555 14.1486C51.0182 14.4727 51.6844 14.9239 52.2541 15.5022C52.8239 16.0716 53.2709 16.7419 53.5953 17.5128C53.9284 18.2751 54.0949 19.0898 54.0949 19.9572V26.2051C54.0949 27.1964 53.2914 27.9999 52.3001 27.9999C51.3089 27.9999 50.5054 27.1964 50.5054 26.2051V19.9572C50.5054 19.5892 50.4352 19.2432 50.295 18.919C50.1547 18.5861 49.9619 18.297 49.7164 18.0516C49.471 17.8063 49.1861 17.6136 48.8618 17.4734C48.5375 17.3332 48.1912 17.2631 47.823 17.2631C47.4461 17.2631 47.0911 17.3332 46.758 17.4734C46.4249 17.6136 46.1356 17.8063 45.8902 18.0516C45.6448 18.297 45.4519 18.5861 45.3117 18.919C45.1714 19.2432 45.1013 19.5892 45.1013 19.9572V26.2051Z" fill="#7B4CFF"/>
<path d="M59.7227 10.3918C59.7227 10.7247 59.657 11.0357 59.5255 11.3248C59.4028 11.614 59.2318 11.868 59.0127 12.0871C58.7936 12.2973 58.535 12.4682 58.2369 12.5996C57.9477 12.7222 57.6365 12.7836 57.3034 12.7836C56.9703 12.7836 56.6547 12.7222 56.3567 12.5996C56.0674 12.4682 55.8132 12.2973 55.5941 12.0871C55.3837 11.868 55.2128 11.614 55.0813 11.3248C54.9586 11.0357 54.8972 10.7247 54.8972 10.3918C54.8972 10.0676 54.9586 9.76099 55.0813 9.47187C55.2128 9.17399 55.3837 8.91992 55.5941 8.70965C55.8132 8.49062 56.0674 8.31978 56.3567 8.19713C56.6547 8.06571 56.9703 8 57.3034 8C57.6365 8 57.9477 8.06571 58.2369 8.19713C58.535 8.31978 58.7936 8.49062 59.0127 8.70965C59.2318 8.91992 59.4028 9.17399 59.5255 9.47187C59.657 9.76099 59.7227 10.0676 59.7227 10.3918ZM59.1045 26.192C59.1045 27.1905 58.2951 27.9999 57.2966 27.9999C56.2981 27.9999 55.4887 27.1905 55.4887 26.192V15.7331C55.4887 14.7346 56.2981 13.9252 57.2966 13.9252C58.2951 13.9252 59.1045 14.7346 59.1045 15.7331V26.192Z" fill="#7B4CFF"/>
<path d="M64.1273 26.2051C64.1273 27.1964 63.3238 27.9999 62.3325 27.9999C61.3413 27.9999 60.5377 27.1964 60.5377 26.2051V14.5208C60.5377 14.1918 60.8044 13.9252 61.1334 13.9252C61.3062 13.9252 61.4706 14.0002 61.5837 14.1309L62.5889 15.2919C63.1675 14.7662 63.8205 14.3632 64.5481 14.0829C65.2844 13.7937 66.0514 13.6492 66.8491 13.6492C67.7081 13.6492 68.5189 13.8156 69.2816 14.1486C70.0442 14.4727 70.7104 14.9239 71.2801 15.5022C71.8499 16.0716 72.297 16.7419 72.6213 17.5128C72.9544 18.2751 73.121 19.0898 73.121 19.9572V26.2051C73.121 27.1964 72.3174 27.9999 71.3262 27.9999C70.3349 27.9999 69.5314 27.1964 69.5314 26.2051V19.9572C69.5314 19.5892 69.4613 19.2432 69.321 18.919C69.1808 18.5861 68.9879 18.297 68.7425 18.0516C68.497 17.8063 68.2121 17.6136 67.8878 17.4734C67.5635 17.3332 67.2172 17.2631 66.8491 17.2631C66.4721 17.2631 66.1171 17.3332 65.784 17.4734C65.4509 17.6136 65.1617 17.8063 64.9162 18.0516C64.6708 18.297 64.4779 18.5861 64.3377 18.919C64.1974 19.2432 64.1273 19.5892 64.1273 19.9572V26.2051Z" fill="#7B4CFF"/>
<path d="M77.9596 26.2051C77.9596 27.1964 77.1561 27.9999 76.1649 27.9999C75.1736 27.9999 74.3701 27.1964 74.3701 26.2051V14.5208C74.3701 14.1918 74.6368 13.9252 74.9657 13.9252C75.1386 13.9252 75.3029 14.0002 75.416 14.1309L76.4212 15.2919C76.9998 14.7662 77.6528 14.3632 78.3804 14.0829C79.1167 13.7937 79.8837 13.6492 80.6814 13.6492C81.5404 13.6492 82.3513 13.8156 83.1139 14.1486C83.8765 14.4727 84.5427 14.9239 85.1125 15.5022C85.6822 16.0716 86.1293 16.7419 86.4536 17.5128C86.7867 18.2751 86.9533 19.0898 86.9533 19.9572V26.2051C86.9533 27.1964 86.1497 27.9999 85.1585 27.9999C84.1673 27.9999 83.3637 27.1964 83.3637 26.2051V19.9572C83.3637 19.5892 83.2936 19.2432 83.1533 18.919C83.0131 18.5861 82.8202 18.297 82.5748 18.0516C82.3294 17.8063 82.0445 17.6136 81.7201 17.4734C81.3958 17.3332 81.0496 17.2631 80.6814 17.2631C80.3045 17.2631 79.9495 17.3332 79.6164 17.4734C79.2833 17.6136 78.994 17.8063 78.7486 18.0516C78.5031 18.297 78.3103 18.5861 78.17 18.919C78.0298 19.2432 77.9596 19.5892 77.9596 19.9572V26.2051Z" fill="#7B4CFF"/>
<defs>
<filter id="filter0_i_50022_15055" x="29.5625" y="8.86963" width="10.4141" height="20.2054" filterUnits="userSpaceOnUse" color-interpolation-filters="sRGB">
<feFlood flood-opacity="0" result="BackgroundImageFix"/>
<feBlend mode="normal" in="SourceGraphic" in2="BackgroundImageFix" result="shape"/>
<feColorMatrix in="SourceAlpha" type="matrix" values="0 0 0 0 0 0 0 0 0 0 0 0 0 0 0 0 0 0 127 0" result="hardAlpha"/>
<feOffset dy="1.07513"/>
<feGaussianBlur stdDeviation="0.95994"/>
<feComposite in2="hardAlpha" operator="arithmetic" k2="-1" k3="1"/>
<feColorMatrix type="matrix" values="0 0 0 0 1 0 0 0 0 1 0 0 0 0 1 0 0 0 0.25 0"/>
<feBlend mode="normal" in2="shape" result="effect1_innerShadow_50022_15055"/>
</filter>
<linearGradient id="paint0_linear_50022_15055" x1="35.7327" y1="19.8294" x2="32.3654" y2="27.4848" gradientUnits="userSpaceOnUse">
<stop stop-color="#C18B00"/>
<stop offset="0.885134" stop-color="#FFB906"/>
<stop offset="1" stop-color="#BE8A02"/>
</linearGradient>
<linearGradient id="paint1_linear_50022_15055" x1="36.0563" y1="8.68716" x2="27.2475" y2="18.1899" gradientUnits="userSpaceOnUse">
<stop stop-color="#EFB727"/>
<stop offset="0.431775" stop-color="#EAAC0C"/>
<stop offset="0.889324" stop-color="#EAB01A"/>
<stop offset="1" stop-color="#C68E01"/>
</linearGradient>
</defs>
</svg>
