<?xml version="1.0" encoding="utf-8"?>
<!-- Generator: Adobe Illustrator 28.0.0, SVG Export Plug-In . SVG Version: 6.00 Build 0)  -->
<svg version="1.1" id="Слой_1" xmlns="http://www.w3.org/2000/svg" xmlns:xlink="http://www.w3.org/1999/xlink" x="0px" y="0px"
	 viewBox="0 0 1280 600" style="enable-background:new 0 0 1280 600;" xml:space="preserve">
<style type="text/css">
	.st0{fill:#FFFFFF;}
	.st1{fill:#1B314F;}
	.st2{fill:#94A6C3;}
	.st3{fill:#FFD923;}
	.st4{fill:#D82122;}
</style>
<g>
	<path class="st0" d="M545,206h40v160h40V166h-40C563,166,545,184,545,206z"/>
	<path class="st0" d="M665,246v120h40v-80C705,264,687,246,665,246z"/>
	<path class="st0" d="M825,246h-80v120h40v-80h40v40c0,22,18,40,40,40v-80C865,264,847,246,825,246z"/>
	<path class="st0" d="M1105,246h-40v-40c0-22-18-40-40-40v160h-80v-40h40v-40h-40c-22,0-40,18-40,40v40c0,22,18,40,40,40h120v-80h40
		v40c0,22,18,40,40,40v-80C1145,264,1127,246,1105,246z"/>
	<path class="st0" d="M665,166v40h40C705,184,687,166,665,166z"/>
</g>
<g>
	<path class="st1" d="M383.9,152.1c0,0,16.4,0.7,33.4,2.6c-38.4-30.2-74.8-39-104.3-39c-40.7,0-68.2,16.7-69.8,17.7l12.8-20.3
		c0,0-51.2-4.9-69.2,49.2c-4.6-11.5-8.9-28.2-8.9-28.2s-26.6,23.3-14.1,62c-30.5-11.1-74.1-26.6-75.7-26.9c-2.3-0.3-3,0.7-3,0.7
		s-0.7,1,1.3,2.6c3.6,3,72.5,53.8,87.5,63.6c-3.3,11.8-3.3,17.4,0,23c4.6,7.5,4.9,11.5,4.3,17.1c-0.7,5.6-6.6,53.8-7.9,59.7
		c-1.3,5.9-15.1,26.9-14.4,33.1c0.7,6.2,9.2,32.8,16.7,35.7c5.6,2,19.3,6.2,28.5,6.2c3.3,0,6.2-0.7,7.5-2c5.6-4.9,7.2-5.9,11.1-5.9
		h1c1.6,0,3.6,0.3,5.9,0.3c5.2,0,12.1-1,17.1-5.6c7.2-7.2,19.7-17.1,23.6-21.6c4.9-6.2,7.5-14.8,6.2-23.3c-1-7.9,3.3-14.8,8.2-21.6
		c6.2-8.2,17.7-23,17.7-23c22.6,17.1,36.7,43,36.7,71.8c0,51.2-44.6,92.5-99.7,92.5c-8.5,0-16.7-1-24.9-3
		c25.2,8.9,46.6,11.8,63.9,11.8c37.1,0,56.7-13.4,56.7-13.4s-6.9,8.9-18,19h0.3c61.3-8.5,91.2-59,91.2-59s-2.3,16.4-5.2,27.5
		c81.6-61.3,67.9-138,67.5-140.7c0.7,1,8.9,10.8,13.1,16.1C494.4,195.7,383.9,152.1,383.9,152.1"/>
	<g>
		<path class="st0" d="M380,371.8c0.7-2.6,3.6-4.3,6.9-5.9c2.3-1.3,5.2-3,5.6-3.9c1.3-7.5,2-15.1,2-22.6c0-1.6-2.6-4.3-4.9-6.2
			c-2.6-2.6-5.2-5.2-5.6-7.9c-2.3-21.3-10.2-42-23-59c1,11.8,0.7,26.2-2.6,43c23.6,41.6,8.9,94.1-21.6,125.9
			C357.3,419.4,372.7,397.1,380,371.8z"/>
		<path class="st0" d="M261.9,353.1c-3.6-14.1-17.7-21.6-22.3-21.3c-5.2,0.7-12.5,1.6-14.8,3.3c4.3-6.6,10.2-9.8,16.1-11.5
			c4.9-14.1,15.4-43,17.7-44.9c1.3-1,4.6-2,10.2-3.6c3.3-0.7,7.9-2,8.5-2.6c1.3-2,14.4-33.4,15.4-35.7c-0.3-2.3-6.9-19-13.8-35.1
			c-16.7,12.1-34.8,8.9-34.8,8.9s12.8-3.6,25.9-23c12.8-19.3,0.7-45.9,0.7-45.9s-44.9,67.5-50.5,68.9c-5.6,1.3-9.5-5.6-9.5-5.6
			s-11.8,30.8-15.1,42c-3.3,11.1,0.7,21.6,3.6,26.9c3.3,5.2,10.2,18.4,0.7,31.8c1.3-5.9-4.6-15.1-8.9-20.7
			c-1.6,14.4-5.9,48.9-7.2,54.4c-0.7,3.9-3,8.2-6.9,15.7c-2,3.9-5.9,10.8-6.9,14.1c1.3,5.9,6.2,20,9.5,24.3
			c4.6,1.6,11.1,3.3,16.7,4.3c2.6,0,5.9-1.3,10.5-5.6c8.5-7.9,14.1-12.1,15.7-20.7c1.6-8.2,1-21,4.9-24.6c3.6-3.6,11.5-5.2,17.7-3.6
			c-4.9,0-10.5,2.3-10.5,2.3s9.5-1.6,13.1,5.2c3.6,6.9,0.7,10.8-5.2,14.8c-4.9,3.3-19.3,18.4-24.3,24.9h3h1.3h2h3.6
			c3.9,0,6.6-0.7,7.9-2c3.3-3.3,7.5-6.9,11.5-10.5c3.9-3.6,9.5-8.5,10.8-10.2c2.6-3.9,4.3-8.9,3.6-14.1V353.1z M245.5,193.8l22-32.5
			c0,0,3,13.1-4.6,22C253.4,194.1,245.2,193.8,245.5,193.8z M184.9,377.1c-4.3,0.3-5.9-4.9-4.9-7.9c1-2.6,11.8-21.6,11.8-21.6
			l-2.6,13.1c0,0,5.2-0.7,5.2,5.2C194.4,370.5,189.1,376.7,184.9,377.1z M219.3,280c-2,7.5-18.7,4.3-12.5-19.7c0,0,3,11.5,5.9,10.5
			c3-1,36.4-53.4,36.4-53.4s-4.3,13.8-7.2,20.7c11.5,2.3,14.8,15.7,8.5,23C244.2,267.9,228.5,277.7,219.3,280z"/>
		<path class="st0" d="M294.4,183.6c-2.3,3.6-4.6,6.9-6.9,9.5c4.9,12.1,17.7,43.9,17.7,45.6c0,2-6.2,18-6.9,18.7
			c-0.7,0.3-8.2,1-11.1,1c-3.3,7.9-6.6,15.4-7.2,16.4c-1,1.3-3.9,2.3-10.2,3.9c-3.3,1-8.2,2.3-8.9,3c-1.6,2-10.5,25.2-16.4,41.6
			c7.9-1.3,14.8,0.3,16.4,1c12.8-24.3,23-37.4,25.6-37.4c2.6-0.3,33.8,4.3,45.9-24.9c11.8-28.9-5.2-53.4-5.9-54.4
			c0.7,0.3,26.9,12.5,33.4,51.8c14.8,18.7,24.3,41.3,26.9,65.3c0,1.6,2.6,3.9,4.3,5.9c3,3,5.9,5.9,5.9,8.9c0,7.9-0.7,15.7-2,23.3
			c-0.7,2.6-3.9,4.6-7.2,6.2c-2,1.3-4.9,3-5.2,3.9c-7.2,25.9-23.6,48.9-44.9,65.3c45.2-21.6,76.4-67.9,76.4-121
			C414.1,247.9,361.6,190.8,294.4,183.6z"/>
		<path class="st0" d="M242.9,355.7c0-4.6-6.2-5.6-8.9-4.9c-2.6,0.7-3.3,4.9-3.6,7.2c-0.3,2.3,0,9.5-3,13.8c0.7-0.7,5.2-5.6,7.5-7.9
			C238.3,361,242.9,360,242.9,355.7z"/>
		<path class="st0" d="M189.8,225.6c2.3-4.3,0.3-7.2-1.6-8.9c-0.3-0.3-0.7-0.7-0.7-0.7c-3.9-2-28.5-11.1-52.8-19.7
			c21.3,14.1,44.9,27.9,48.9,29.8C186.5,227.5,188.5,227.9,189.8,225.6z"/>
	</g>
	<g>
		<path class="st2" d="M282.7,210.6c-1.2-2.9-2.5-5.9-3.8-8.9c-16.3,11.8-33.8,9-34.7,8.9C245.1,210.7,262.5,216.2,282.7,210.6z"/>
		<path class="st2" d="M316.9,188c-7.3-2.1-14.8-3.6-22.5-4.4c-2.3,3.6-4.6,6.9-6.9,9.5c1.4,3.4,3.4,8.3,5.5,13.7
			C301.1,202.9,309.4,197,316.9,188z"/>
		<path class="st2" d="M261.9,353.1c-3.6-14.1-17.7-21.6-22.3-21.3c-5.2,0.7-12.5,1.6-14.8,3.3c4.3-6.6,10.2-9.8,16.1-11.5
			c1.7-4.8,4-11.3,6.4-17.9c-5.6,3-25.4,13.5-27.1,14.6c-2,1.3-8.9,15.1-14.1,29.5c-3-9.2-9.5-14.8-9.8-15.1
			c0.3,1.6,7.2,28.9,4.9,37.1c-2.3,8.5-16.7,16.1-16.7,16.1l21.7,4.8c0.2-0.2,0.4-0.4,0.6-0.6c8.5-7.9,14.1-12.1,15.7-20.7
			c1.6-8.2,1-21,4.9-24.6c3.6-3.6,11.5-5.2,17.7-3.6c-1.8,0-3.6,0.3-5.3,0.7c5.6,0.1,13,2.2,12.8,13.4c0,8.5-9.5,9.2-19,17.1
			c-1.9,1.6-4,3.4-6.1,5.4c0,0,0,0,0,0c-3.8,4.1-7.3,8.1-9.3,10.7h9.8c3.9,0,6.6-0.7,7.9-2c3.3-3.3,7.5-6.9,11.5-10.5
			c3.9-3.6,9.5-8.5,10.8-10.2c2.6-3.9,4.3-8.9,3.6-14.1V353.1z"/>
		<path class="st2" d="M289.1,278.4c-11.5,0-26.9,7.5-26.9,7.5l-15.1,37c6.7-0.6,12.3,0.7,13.8,1.3c12.8-24.3,23-37.4,25.6-37.4
			c2.6-0.3,33.8,4.3,45.9-24.9c11.8-28.9-5.2-53.4-5.9-54.4C340.3,252.8,309.8,278,289.1,278.4z"/>
		<path class="st2" d="M380,371.8c0.7-2.6,3.6-4.3,6.9-5.9c2.3-1.3,5.2-3,5.6-3.9c1.3-7.5,2-15.1,2-22.6c0-1.6-2.6-4.3-4.9-6.2
			c-2.6-2.6-5.2-5.3-5.6-7.9c-2.3-21.3-10.2-42-23-59c1,11.8,0.7,26.2-2.6,42.9c23.6,41.6,8.9,94.1-21.6,125.9
			C357.3,419.4,372.7,397.1,380,371.8z"/>
		<path class="st2" d="M410.4,310.2c-11.7-66.2-78.7-100.3-83.8-102.6c2.1,1,25.9,13.1,32.9,49.4c16.3,19,26.5,42.8,29.3,67.9
			c0,1.6,2.3,3.9,4.6,5.9c3,3,5.9,5.9,5.9,8.9c0,7.9-0.7,15.7-2,23.3c-0.7,2.6-3.9,4.3-7.2,6.2c-2,1.3-4.9,3-5.2,3.9
			c-6.7,23.7-20.7,44.8-39.3,60.8c-1.5,1.3-3,2.5-4.6,3.8c35.3-20,60.2-50.4,68.3-85C412.4,339,413,324.7,410.4,310.2z"/>
	</g>
	<path class="st3" d="M221.9,273.8l17.1-29.2c0,0,9.8,4.9,4.9,12.8C237.6,266.6,221.9,273.8,221.9,273.8"/>
	<g>
		<path class="st4" d="M416,270.2c1.6,3,42,77.4-0.3,158.7c6.6-6.6,12.1-13.4,17.1-20c28.2-39.3,24.3-93.4-8.2-129.5
			C421.9,276.4,419,273.1,416,270.2z"/>
		<path class="st4" d="M472.1,304.3c-0.7-42-14.8-78-42-106.9c-0.3-0.3-0.3-0.3-0.7-0.7c-23.9-25.2-59-37.1-93.8-32.1
			c-13.1,1.6-26.2,4.3-36.4,7.5c-1.6,0.3-3.3,0.7-4.9,1.3h0.7c2.6-0.3,50.5-2.6,95.1,26.9C436.4,230.8,457.3,264.6,472.1,304.3z"/>
		<path class="st4" d="M379.6,142c-21.6-10.8-44.3-16.4-66.9-16.7c-8.5,0-16.4,0.7-23.6,2c-25.6,4.6-46.6,23-53.8,47.5
			c0,0,5.2-8.2,17.7-16.7c4.6-6.2,11.8-16.1,18.7-24.3c2,4.3,4.3,9.5,4.9,12.1C299.3,137.4,330.8,132.8,379.6,142z"/>
		<path class="st4" d="M174,156.4c-0.7,2.6-13.4,47.2,24.9,48.5C176.7,191.5,174,156.7,174,156.4z"/>
		<path class="st4" d="M236.7,124.6c-2.3,1-51.8,17.1-23.6,60C213.1,184.6,207.2,142.3,236.7,124.6z"/>
	</g>
</g>
</svg>
