<svg width="800px" height="800px" viewBox="0 5 20.7 20.7" version="1.1" xmlns="http://www.w3.org/2000/svg" fill="#C5FF41">
    <path d="M20.4 13l-3.72-5.12c-0.16-0.2-0.4-0.36-0.68-0.36h-11.44c-0.28 0-0.52 0.12-0.68 0.36l-3.72 5.12c-0.24 0.32-0.2 0.76 0.080 1.040l9.44 10.16c0.16 0.16 0.36 0.28 0.6 0.28s0.44-0.080 0.6-0.28l9.44-10.16c0.28-0.28 0.32-0.72 0.080-1.040zM6.28 14.32l2 5.96-5.52-5.96h3.52zM11.040 9.2l1.4 3.48h-4.32l1.4-3.48h1.52zM12.52 14.32l-2.24 6.72-2.24-6.72h4.48zM14.28 14.32h3.52l-5.52 5.96 2-5.96zM18.080 12.64h-3.84l-1.4-3.44h2.72l2.52 3.44zM4.96 9.2h2.72l-1.4 3.48h-3.8l2.48-3.48z"></path>
</svg>