<?xml version="1.0" encoding="utf-8"?>
<!-- Generator: Adobe Illustrator 16.0.0, SVG Export Plug-In . SVG Version: 6.00 Build 0)  -->
<!DOCTYPE svg PUBLIC "-//W3C//DTD SVG 1.1//EN" "http://www.w3.org/Graphics/SVG/1.1/DTD/svg11.dtd">
<svg version="1.1" id="Layer_1" xmlns="http://www.w3.org/2000/svg" xmlns:xlink="http://www.w3.org/1999/xlink" x="0px" y="0px"
	 width="248.687px" height="39.844px" viewBox="-17.73 3.848 248.687 39.844" enable-background="new -17.73 3.848 248.687 39.844"
	 xml:space="preserve">
<g>
	<g>
		<path fill="#C5FF41" d="M-7.244,33.908c-0.343-1.094-1.513-1.703-2.611-1.357l-6.412,2.01c-1.099,0.346-1.712,1.512-1.369,2.605
			c0.343,1.094,1.512,1.701,2.611,1.357l6.412-2.012C-7.514,36.168-6.901,35.002-7.244,33.908"/>
	</g>
	<path fill="#C5FF41" d="M-0.964,38.465l-3.727,1.168c-1.099,0.346-1.712,1.512-1.369,2.605c0.343,1.094,1.512,1.701,2.611,1.357
		l3.727-1.168c1.1-0.346,1.712-1.512,1.369-2.605C1.304,38.729,0.135,38.121-0.964,38.465"/>
	<path fill="#C5FF41" d="M19.024,21.83c1.81-5.632,0.256-11.19-2.359-16.325c-4.061,1.79-7.246,4.857-9.219,8.564l2.283-0.716
		c1.099-0.345,2.269,0.263,2.612,1.358c0.343,1.094-0.271,2.259-1.37,2.603l-11.726,3.678c-1.099,0.344-1.711,1.511-1.369,2.605
		c0.344,1.096,1.512,1.704,2.612,1.358l7.649-2.398c1.099-0.345,2.268,0.264,2.611,1.357c0.343,1.093-0.27,2.259-1.368,2.603
		l-11.726,3.678c-1.1,0.346-1.711,1.512-1.369,2.605c0.343,1.094,1.512,1.701,2.611,1.357l7.408-2.324c0.002,0,0.002,0,0.002,0
		l6.411-2.012c0.315-0.098,0.635-0.115,0.94-0.07c0.536-0.432,1.041-0.881,1.496-1.367C16.916,26.492,18.255,24.229,19.024,21.83z"
		/>
	<g>
		<path fill="#C5FF41" d="M28.842,32.688c-0.959-5.365,0.494-10.208,4.196-13.996c2.119-2.169,4.953-3.915,8.129-5.138
			c-3.863-6.83-11.621-10.657-19.479-9.502c-0.558,0.083-1.117,0.192-1.674,0.325c2.787,5.642,4.461,11.971,2.355,18.524
			c-0.929,2.888-2.542,5.611-4.655,7.873c-0.927,0.994-1.965,1.818-3.004,2.592c-0.082,0.07-0.17,0.135-0.263,0.193
			c-0.149,0.094-0.311,0.172-0.486,0.227L7.67,35.758l-2.217,0.695c-1.099,0.344-1.712,1.512-1.368,2.605
			c0.343,1.094,1.512,1.701,2.611,1.355l6.3-1.975c2.396,1.754,5.186,2.943,8.14,3.449c2.917,0.502,5.995,0.336,9.018-0.613
			c0.852-0.268,1.669-0.592,2.456-0.961C30.953,38.084,29.384,35.713,28.842,32.688z"/>
		<path fill="#C5FF41" d="M35.423,21.02c-2.963,3.029-4.068,6.756-3.296,11.08c0.433,2.432,1.826,4.451,3.385,6.529
			c6.635-4.684,9.814-13.246,7.263-21.378c-0.069-0.22-0.146-0.438-0.221-0.653C39.85,17.596,37.346,19.052,35.423,21.02z"/>
	</g>
</g>
<g>
	<path fill="#FFFFFF" d="M70.685,21.644h-7.969v19.552h-4.656V21.644h-7.97v-4.208h20.596V21.644z"/>
	<path fill="#FFFFFF" d="M78.127,41.692c-2.767,0-5.003-0.828-6.727-2.484c-1.724-1.658-2.585-3.845-2.585-6.563
		c0-2.602,0.828-4.771,2.486-6.495c1.656-1.723,3.826-2.584,6.494-2.584c2.734,0,4.905,0.828,6.496,2.501
		c1.591,1.674,2.386,3.777,2.386,6.313c0,0.696-0.033,1.226-0.1,1.591H73.24c0.148,1.176,0.646,2.121,1.491,2.833
		c0.844,0.713,2.004,1.061,3.495,1.061c1.989,0,3.381-0.763,4.176-2.271l4.043,1.193c-0.563,1.292-1.558,2.436-2.999,3.413
		s-3.198,1.476-5.269,1.476L78.127,41.692z M82.286,31.171c-0.115-1.077-0.579-1.988-1.392-2.718
		c-0.812-0.729-1.855-1.094-3.147-1.094c-1.243,0-2.271,0.382-3.099,1.128c-0.829,0.745-1.309,1.64-1.442,2.684H82.286z"/>
	<path fill="#FFFFFF" d="M100.086,23.566c2.203,0,3.877,0.679,5.037,2.037c1.16,1.359,1.739,3.215,1.739,5.567v10.041h-4.49v-9.195
		c0-1.343-0.315-2.387-0.929-3.149c-0.612-0.762-1.523-1.143-2.733-1.143c-1.243,0-2.236,0.447-2.999,1.358
		c-0.762,0.912-1.144,2.121-1.144,3.629v8.483h-4.473V24.029h4.473V26.2c1.376-1.772,3.215-2.651,5.519-2.651V23.566z"/>
	<path fill="#FFFFFF" d="M121.083,23.566c2.204,0,3.877,0.679,5.037,2.037c1.16,1.359,1.739,3.215,1.739,5.567v10.041h-4.489v-9.195
		c0-1.343-0.315-2.387-0.929-3.149c-0.613-0.762-1.523-1.143-2.734-1.143c-1.242,0-2.236,0.447-2.999,1.358
		c-0.762,0.912-1.143,2.121-1.143,3.629v8.483h-4.474V24.029h4.474V26.2c1.376-1.772,3.215-2.651,5.518-2.651V23.566z"/>
	<path fill="#FFFFFF" d="M134.342,21.644c-0.745,0-1.375-0.249-1.889-0.762s-0.778-1.143-0.778-1.889
		c0-0.729,0.265-1.342,0.778-1.839s1.144-0.746,1.889-0.746c0.746,0,1.375,0.249,1.889,0.746s0.779,1.11,0.779,1.839
		c0,0.746-0.266,1.375-0.779,1.873s-1.143,0.746-1.889,0.746V21.644z M132.022,24.063h4.507v17.167h-4.507V24.063z"/>
	<path fill="#FFFFFF" d="M147.731,41.66c-2.038,0-3.827-0.53-5.368-1.574c-1.541-1.045-2.535-2.287-2.982-3.729l4.043-1.177
		c0.299,0.846,0.845,1.524,1.64,2.055c0.796,0.53,1.741,0.796,2.851,0.796c0.845,0,1.524-0.166,2.055-0.514s0.796-0.763,0.796-1.26
		c0-0.746-0.63-1.309-1.906-1.69l-4.374-1.292c-2.833-0.812-4.242-2.336-4.242-4.573c0-1.425,0.68-2.635,2.021-3.646
		c1.343-1.01,2.966-1.508,4.872-1.508c1.806,0,3.396,0.398,4.755,1.193s2.32,1.84,2.867,3.148l-3.977,1.159
		c-0.746-1.342-1.973-2.005-3.662-2.005c-0.68,0-1.26,0.149-1.74,0.465c-0.48,0.314-0.712,0.679-0.712,1.093
		c0,0.63,0.479,1.077,1.425,1.359l4.274,1.226c1.541,0.447,2.733,1.027,3.579,1.724c0.845,0.695,1.26,1.739,1.26,3.147
		c0,1.624-0.696,2.967-2.088,4.027s-3.165,1.591-5.335,1.591L147.731,41.66z"/>
	<path fill="#FFFFFF" d="M169.971,41.692c-3.579,0-6.545-1.176-8.915-3.545c-2.369-2.37-3.546-5.319-3.546-8.85
		c0-3.495,1.177-6.428,3.546-8.781c2.37-2.353,5.319-3.529,8.849-3.529c2.999,0,5.518,0.762,7.539,2.287s3.348,3.331,3.96,5.419
		l-4.556,1.109c-0.415-1.243-1.243-2.304-2.486-3.165c-1.242-0.861-2.717-1.292-4.44-1.292c-2.286,0-4.143,0.762-5.551,2.303
		s-2.121,3.414-2.121,5.617c0,2.221,0.713,4.109,2.138,5.684c1.426,1.574,3.265,2.353,5.534,2.353c1.724,0,3.215-0.431,4.458-1.275
		c1.242-0.846,2.07-1.89,2.485-3.132l4.506,1.16c-0.579,2.07-1.889,3.86-3.91,5.368c-2.021,1.508-4.507,2.254-7.439,2.254
		L169.971,41.692z"/>
	<path fill="#FFFFFF" d="M192.643,41.677c-2.651,0-4.839-0.862-6.578-2.602c-1.74-1.74-2.602-3.895-2.602-6.479
		s0.878-4.738,2.617-6.462c1.741-1.724,3.928-2.585,6.579-2.585c2.65,0,4.838,0.861,6.578,2.585
		c1.739,1.724,2.601,3.877,2.601,6.462s-0.861,4.739-2.601,6.479c-1.74,1.739-3.928,2.602-6.562,2.602H192.643z M196.122,36.192
		c0.895-0.945,1.343-2.138,1.343-3.58c0-1.441-0.448-2.634-1.343-3.579c-0.895-0.944-2.055-1.408-3.479-1.408
		c-1.426,0-2.586,0.464-3.479,1.408c-0.895,0.945-1.342,2.138-1.342,3.579c0,1.442,0.447,2.635,1.342,3.58
		c0.894,0.943,2.054,1.408,3.479,1.408C194.067,37.601,195.228,37.136,196.122,36.192z"/>
	<path fill="#FFFFFF" d="M207.492,21.644c-0.745,0-1.375-0.249-1.889-0.762s-0.778-1.143-0.778-1.889
		c0-0.729,0.265-1.342,0.778-1.839s1.144-0.746,1.889-0.746c0.746,0,1.375,0.249,1.889,0.746s0.779,1.11,0.779,1.839
		c0,0.746-0.266,1.375-0.779,1.873s-1.143,0.746-1.889,0.746V21.644z M205.173,24.063h4.507v17.167h-4.507V24.063z"/>
	<path fill="#FFFFFF" d="M224.18,23.566c2.204,0,3.877,0.679,5.037,2.037c1.16,1.359,1.739,3.215,1.739,5.567v10.041h-4.489v-9.195
		c0-1.343-0.314-2.387-0.929-3.149c-0.613-0.762-1.523-1.143-2.734-1.143c-1.242,0-2.236,0.447-2.999,1.358
		c-0.762,0.912-1.143,2.121-1.143,3.629v8.483h-4.474V24.029h4.474V26.2c1.375-1.772,3.215-2.651,5.518-2.651V23.566z"/>
</g>
</svg>
