<svg width="800px" height="800px" viewBox="0 0 24 24" xmlns="http://www.w3.org/2000/svg" id="reward" class="icon glyph" fill="#C5FF41">
    <path d="M15.34,17.44a4.85,4.85,0,0,0,.72-.71,3.08,3.08,0,0,1,.48-.48,2.86,2.86,0,0,1,.61-.31,6.64,6.64,0,0,0,1-.49,2.35,2.35,0,0,0,.6-.58,3.25,3.25,0,0,0,.52-1.61h0c0-.06,0-.11,0-.17a3.65,3.65,0,0,1,.1-.69,4.31,4.31,0,0,1,.31-.59,3.48,3.48,0,0,0,.63-1.8,3.48,3.48,0,0,0-.63-1.8,4.31,4.31,0,0,1-.31-.59,3.65,3.65,0,0,1-.1-.69,3.55,3.55,0,0,0-.54-1.79,3.51,3.51,0,0,0-1.55-1.07,2.86,2.86,0,0,1-.61-.31,3.59,3.59,0,0,1-.48-.48,3.52,3.52,0,0,0-1.5-1.15,3.47,3.47,0,0,0-1.85,0,3.1,3.1,0,0,1-1.42,0,3.47,3.47,0,0,0-1.85,0,3.52,3.52,0,0,0-1.5,1.15,3.08,3.08,0,0,1-.48.48,2.86,2.86,0,0,1-.61.31A3.51,3.51,0,0,0,5.3,5.13a3.55,3.55,0,0,0-.54,1.79,3.65,3.65,0,0,1-.1.69,4.31,4.31,0,0,1-.31.59A3.48,3.48,0,0,0,3.72,10a3.48,3.48,0,0,0,.63,1.8,4.31,4.31,0,0,1,.31.59,3.65,3.65,0,0,1,.1.69c0,.05,0,.11,0,.17a3.28,3.28,0,0,0,.52,1.62,2.35,2.35,0,0,0,.6.58,6.64,6.64,0,0,0,.95.49,2.86,2.86,0,0,1,.61.31,3.59,3.59,0,0,1,.48.48,4.85,4.85,0,0,0,.72.71,2.29,2.29,0,0,0,.78.44,2.76,2.76,0,0,0,1.2.08,5.74,5.74,0,0,0,.65-.13,3.1,3.1,0,0,1,1.42,0,5.74,5.74,0,0,0,.65.13h0a3.29,3.29,0,0,0,.45,0,2.42,2.42,0,0,0,.74-.11A2.29,2.29,0,0,0,15.34,17.44ZM12,14a4,4,0,1,1,4-4A4,4,0,0,1,12,14ZM9.14,18.84a3.59,3.59,0,0,0,1,.14L8.89,21.45a1,1,0,0,1-.74.54H8a1,1,0,0,1-.72-.3L5.6,20,3,20a1.11,1.11,0,0,1-.86-.47,1,1,0,0,1,0-1l2-3.88a3.26,3.26,0,0,0,.41.78,3.67,3.67,0,0,0,.87.84,9,9,0,0,0,1.11.57c.08,0,.32.14.42.2s.18.19.3.32A5.85,5.85,0,0,0,8,18.2,3.39,3.39,0,0,0,9.14,18.84Zm12.71.69A1.05,1.05,0,0,1,21,20L18.4,20,16.72,21.7A1,1,0,0,1,16,22h-.15a1,1,0,0,1-.74-.54L13.88,19a3.54,3.54,0,0,0,1-.16,3.13,3.13,0,0,0,1.07-.59,6,6,0,0,0,.88-.86,2,2,0,0,1,.33-.34l.44-.2a8.68,8.68,0,0,0,1.07-.56,3.5,3.5,0,0,0,.85-.82,3.24,3.24,0,0,0,.42-.8l2,3.89A1,1,0,0,1,21.85,19.53Z"></path>
</svg>